<svg xmlns="http://www.w3.org/2000/svg" viewBox="0 0 509.32 417.23"><defs><style>.cls-1,.cls-5{fill:#fff;}.cls-2{fill:#ed2426;}.cls-3{fill:#a81f24;}.cls-4{fill:#231f20;}.cls-5{stroke:#231f20;stroke-miterlimit:10;stroke-width:9px;}.cls-6{fill:#e0cece;}.cls-7{fill:#010101;}</style></defs><title>Asset 2</title><g id="Layer_2" data-name="Layer 2"><g id="Layer_1-2" data-name="Layer 1"><path class="cls-1" d="M6,192.77l10.45,28.5L26.18,224,77.86,407.22l22.85,3L34.59,195l148.62-19.1-.56-15.63S60.44,157.38,6,192.77Z"/><path class="cls-2" d="M183.92,155.35c-4.23-.4-104.55-9.23-180.16,31.55l-3.76,2,13.49,39.26,7.4-2.48L75.24,412.46l2.72.74c1.38.38,19.44,5.16,43.74,3.67,21.42-1.3,47.7-7.46,71.66-25.78l2.13-1.64L183.75,196.31l6.91-.42-2.44-40.14Z"/><path class="cls-3" d="M39.6,209.25l-8.31,2.62L21,179.27q-4.07,2-8,4.1l-3.77,2,13.5,39.27,7.39-2.49L84.4,408.93l2.72.74c.57.16,6.36,1.55,11.79,2.44Z"/><path class="cls-2" d="M145,154.42c1.85,0,3.65-.08,5.4-.1C148.68,154.34,146.88,154.37,145,154.42Z"/><path class="cls-2" d="M103.61,157.43c2.34-.29,4.66-.55,7-.8C108.27,156.88,106,157.14,103.61,157.43Z"/><path class="cls-2" d="M133.34,154.86q3.06-.17,6-.27Q136.4,154.7,133.34,154.86Z"/><path class="cls-2" d="M12.36,193.8l7.44,21.66,2.78-.93c3.55-1.41,72.6-28.19,155.7-28l1.74-.1-1.3-21.37C159.09,163.91,76.19,161.2,12.36,193.8Z"/><path class="cls-3" d="M27.81,236.41,22.4,219.29c.7-.29,71.08-28.3,156.06-28v17.18C95.56,208.15,28.49,236.13,27.81,236.41Z"/><path class="cls-3" d="M31.29,211.87h0L21,179.27q-4.07,2-8,4.1l-3.77,2,13.5,39.27,5.83-4.26h0c.56.15-5.44-.9,0,0Z"/><path class="cls-4" d="M121.73,417c-24.3,1.48-42.36-3.3-43.74-3.68l-2.72-.74L20.92,225.78l-7.39,2.49L0,189H0c75.43-43.81,183.65-34.41,188.22-33.17h0L190.69,196l-6.91.42,11.74,193.15-2.13,1.63C169.43,409.48,143.15,415.64,121.73,417Zm-38.4-12.78c11.88,2.5,60.88,10.33,101.81-19.43l-12-197.8,6.91-.42-1.3-21.37C159.09,164,76.19,161.26,12.36,193.86l7.44,21.66,7.86-2.64Z"/><path class="cls-4" d="M26.18,224l-3.78-9.34c.7-.29,71.08-28.3,156.06-28l0,10.08C95.53,196.41,26.86,223.72,26.18,224Z"/><path class="cls-4" d="M46.33,291.67l-4.59-9c2.62-1.35,65-32.66,141.58-24.61l-1.06,10C108.61,260.37,46.94,291.37,46.33,291.67Z"/><circle class="cls-5" cx="144.39" cy="102.61" r="34.01"/><path class="cls-6" d="M149.59,121.77a25.47,25.47,0,0,1-21.72-38.84,25.49,25.49,0,1,0,38.61,32.41A25.38,25.38,0,0,1,149.59,121.77Z"/><path class="cls-7" d="M237.12,137.28H261.8a49.62,49.62,0,0,1,10.22,1,25.14,25.14,0,0,1,8.65,3.48,17.82,17.82,0,0,1,6,6.53,21.24,21.24,0,0,1,2.22,10.21q0,7-2.38,11.2a17.05,17.05,0,0,1-6.43,6.59,26.84,26.84,0,0,1-9.38,3.16,73,73,0,0,1-11.15.83h-9.33v30.38H237.12Zm20.95,31.83q2.79,0,5.81-.21a17.6,17.6,0,0,0,5.54-1.24,9.81,9.81,0,0,0,4.15-3.11,11.11,11.11,0,0,0,.16-11.25,9.59,9.59,0,0,0-3.74-3.11,15.43,15.43,0,0,0-5.08-1.4,48.07,48.07,0,0,0-5.39-.31h-9.33v20.63Z"/><path class="cls-7" d="M322.15,203.85h-.31A16.09,16.09,0,0,1,315,210a21.49,21.49,0,0,1-9.13,1.92,24,24,0,0,1-6.69-.94,17.86,17.86,0,0,1-5.8-2.8,14.36,14.36,0,0,1-4.1-4.66,13.24,13.24,0,0,1-1.56-6.54,15,15,0,0,1,1.46-6.89,14.12,14.12,0,0,1,3.88-4.77,19.7,19.7,0,0,1,5.66-3.06,38.7,38.7,0,0,1,6.68-1.71,60.83,60.83,0,0,1,7-.73c2.35-.1,4.57-.15,6.64-.15h3.11v-1.35a8.1,8.1,0,0,0-3.21-7,13.6,13.6,0,0,0-8.2-2.33,19.14,19.14,0,0,0-7.36,1.4,18.59,18.59,0,0,0-5.91,3.78l-6.53-6.53a24.24,24.24,0,0,1,9.69-6.12,35.84,35.84,0,0,1,11.46-1.87,28.68,28.68,0,0,1,8.92,1.2,19.36,19.36,0,0,1,6,3.06,13.62,13.62,0,0,1,3.69,4.3,20.14,20.14,0,0,1,1.86,4.92,27.11,27.11,0,0,1,.68,4.83c.06,1.55.1,2.92.1,4.09v28.62h-11.2Zm-.72-15.45h-2.6q-2.59,0-5.8.21a29.73,29.73,0,0,0-6.07,1,13.91,13.91,0,0,0-4.82,2.28,5,5,0,0,0-2,4.2,5.3,5.3,0,0,0,.78,3,6.94,6.94,0,0,0,2,2,8.46,8.46,0,0,0,2.8,1.19,13.68,13.68,0,0,0,3.11.36c4.28,0,7.45-1,9.49-3.06a11.29,11.29,0,0,0,3.06-8.34Z"/><path class="cls-7" d="M338.43,160.92h12.44v7.88h.21a15.62,15.62,0,0,1,5.91-6.74,16.36,16.36,0,0,1,8.81-2.39,11.71,11.71,0,0,1,2.23.21c.73.14,1.47.31,2.23.52v12c-1-.28-2.05-.5-3.06-.68a17.54,17.54,0,0,0-2.95-.25,13.39,13.39,0,0,0-7,1.6,12.86,12.86,0,0,0-4,3.68,12.19,12.19,0,0,0-1.87,4.15,15.87,15.87,0,0,0-.47,3.11v26.65H338.43Z"/><path class="cls-7" d="M375,171.5V160.92H385.3V146.51h12.44v14.41h13.69V171.5H397.74v21.77a10.86,10.86,0,0,0,1.4,5.91q1.39,2.17,5.55,2.18a20.42,20.42,0,0,0,3.63-.36,7.49,7.49,0,0,0,3.11-1.2v10.48a16.07,16.07,0,0,1-4.82,1.29,39.18,39.18,0,0,1-5,.37,25.62,25.62,0,0,1-8.14-1.09,10.75,10.75,0,0,1-5-3.32A12.59,12.59,0,0,1,386,202a38.81,38.81,0,0,1-.67-7.67V171.5Z"/><path class="cls-7" d="M236.81,223.75H284.2v11.82H249.88v19.29h32.35v11.82H249.88v30.48H236.81Z"/><path class="cls-7" d="M289.49,230.49a7.16,7.16,0,0,1,2.23-5.24,7.67,7.67,0,0,1,5.65-2.23,8.2,8.2,0,0,1,5.75,2.13,7.26,7.26,0,0,1,0,10.68,8.2,8.2,0,0,1-5.75,2.13,7.67,7.67,0,0,1-5.65-2.23A7.18,7.18,0,0,1,289.49,230.49Zm1.76,16.9h12.44v49.77H291.25Z"/><path class="cls-7" d="M311.78,247.39H323.6v8h.21a17.48,17.48,0,0,1,5.39-6.49q3.63-2.74,9.85-2.74a19.41,19.41,0,0,1,8.45,1.66,15.81,15.81,0,0,1,5.65,4.35,16.49,16.49,0,0,1,3.11,6.22,28.36,28.36,0,0,1,.94,7.37v31.41H344.75V272c0-1.38-.07-2.92-.2-4.62a16.94,16.94,0,0,0-1.09-4.77,9,9,0,0,0-2.75-3.73,7.88,7.88,0,0,0-5.08-1.5,11.94,11.94,0,0,0-5.24,1,10,10,0,0,0-3.52,2.8,11,11,0,0,0-2,4.05,17.83,17.83,0,0,0-.63,4.77v27.16H311.78Z"/><path class="cls-7" d="M404.48,289.7h-.2a16.09,16.09,0,0,1-7.26,6.64,23.61,23.61,0,0,1-9.86,2.07,25.06,25.06,0,0,1-10.31-2,23.12,23.12,0,0,1-7.73-5.55,23.68,23.68,0,0,1-4.87-8.3,30.92,30.92,0,0,1-1.66-10.26A29.5,29.5,0,0,1,364.35,262a25.56,25.56,0,0,1,4.93-8.29,22.68,22.68,0,0,1,7.62-5.55,23.28,23.28,0,0,1,9.75-2,24.27,24.27,0,0,1,6.22.72,21.86,21.86,0,0,1,4.77,1.87,18.56,18.56,0,0,1,3.52,2.44,17.29,17.29,0,0,1,2.39,2.54h.31V218.77H416.3v78.39H404.48ZM375,272.28a16.15,16.15,0,0,0,1,5.6,13.87,13.87,0,0,0,2.9,4.77,14.71,14.71,0,0,0,21.47,0,14,14,0,0,0,2.9-4.77,16.33,16.33,0,0,0,0-11.2,14,14,0,0,0-2.9-4.77,14.7,14.7,0,0,0-21.47,0,13.87,13.87,0,0,0-2.9,4.77A16.11,16.11,0,0,0,375,272.28Z"/><path class="cls-7" d="M434.14,276.63a12.59,12.59,0,0,0,4.35,8.71,13.61,13.61,0,0,0,9,3.11,14.81,14.81,0,0,0,7.82-1.91,21.66,21.66,0,0,0,5.55-4.83l8.92,6.74a25.25,25.25,0,0,1-9.75,7.68,28.7,28.7,0,0,1-11.3,2.28,29.79,29.79,0,0,1-10.58-1.87A24.71,24.71,0,0,1,423.82,283a28.21,28.21,0,0,1,0-21.46,25.22,25.22,0,0,1,5.75-8.25,25.48,25.48,0,0,1,8.61-5.29,30,30,0,0,1,10.58-1.86,24.17,24.17,0,0,1,9.49,1.81,20.45,20.45,0,0,1,7.36,5.24,24.17,24.17,0,0,1,4.77,8.45,35.87,35.87,0,0,1,1.71,11.56v3.42Zm25.51-9.33a11.74,11.74,0,0,0-3.42-8.66q-3.33-3.17-9.23-3.16-5.61,0-8.87,3.21a14.35,14.35,0,0,0-4,8.61Z"/><path class="cls-7" d="M477.48,247.39h12.45v7.88h.2a15.62,15.62,0,0,1,5.91-6.74,16.37,16.37,0,0,1,8.82-2.38,12.67,12.67,0,0,1,2.23.2c.72.14,1.46.32,2.23.52v12c-1-.27-2.06-.5-3.06-.67a17.77,17.77,0,0,0-3-.26,13.29,13.29,0,0,0-7,1.61,12.63,12.63,0,0,0-4,3.68,12.07,12.07,0,0,0-1.87,4.14,15.77,15.77,0,0,0-.46,3.11v26.65H477.48Z"/><path class="cls-7" d="M433.31,217c-.56,1.31-1.07,2.43-1.56,3.37a5.72,5.72,0,0,1-2.55,2.75h14.14c.25-.59.51-1.14.75-1.77l23.54-60.45h-13l-12.44,34.53H442l-13.9-34.53H414.44l21.25,50.19Z"/><polygon class="cls-7" points="417.13 223.14 417.14 223.14 417.13 223.14 417.13 223.14"/><rect class="cls-4" x="166.19" y="35.13" width="63.81" height="9.35" rx="4.67" transform="translate(20.03 135.3) rotate(-39.56)"/><rect class="cls-4" x="226.31" y="3.46" width="20.22" height="9.35" rx="4.67" transform="translate(48.98 152.46) rotate(-39.56)"/><rect class="cls-4" x="192.97" y="54.25" width="25.04" height="9.35" rx="4.67" transform="translate(401.45 -26.54) rotate(140.44)"/><rect class="cls-4" x="217.28" y="28.84" width="37.95" height="9.35" rx="4.67" transform="translate(439.73 -91.14) rotate(140.44)"/><rect class="cls-4" x="200.8" y="22.68" width="24.75" height="9.35" rx="4.67" transform="translate(31.42 142.05) rotate(-39.56)"/></g></g></svg>